# xmcd CD database file
#
# Track frame offsets:
#	150
#	20635
#	32860
#	54565
#	74565
#	92395
#	112017
#	126182
#	138820
#	158997
#	177559
#	194662
#	220162
#	234447
#	251157
#
# Disc length: 3672 seconds
#
# Revision: 3
# Processed by: cddbd v1.4PL0 Copyright (c) Steve Scherf et al.
# Submitted via: CDex 1.40Beta8
#
DISCID=e00e560f
DTITLE=Little Charlie and The Nightcats - Little Charlie and the Nightcats Deluxe Edition
DYEAR=1900
DGENRE=Blues
TTITLE0=Can't Keep It Up
TTITLE1=Right Around the Corner
TTITLE2=I Beg Your Pardon
TTITLE3=Don't Do It
TTITLE4=Sure Seems Strange
TTITLE5=Run Me Down
TTITLE6=Too Close Together
TTITLE7=I Feel So Sorry
TTITLE8=My Next Ex-Wife
TTITLE9=Clothes Line
TTITLE10=Dump That Chump
TTITLE11=I'll Take You Back
TTITLE12=The Booty Song (I Love To Watch You Walk Away)
TTITLE13=Gerontology
TTITLE14=Crying Won't Help You
EXTD=ID3G: 0
EXTT0=
EXTT1=
EXTT2=
EXTT3=
EXTT4=
EXTT5=
EXTT6=
EXTT7=
EXTT8=
EXTT9=
EXTT10=
EXTT11=
EXTT12=
EXTT13=
EXTT14=
PLAYORDER=
